# xmcd
#
# Track frame offsets:
#	150
#	12399
#	24354
#	34856
#	51852
#	67542
#	79584
#	91962
#	102991
#	116515
#	134963
#	145584
#
# Disc length: 2078 seconds
#
# Revision: 1
# Processed by: cddbd v1.4PL0 Copyright (c) Steve Scherf et al.
# Submitted via: EasyCDDAExtractor 5.0.7
#
DISCID=96081c0c
DTITLE=Dionne Warwicke - The Greatest Hits Vol. 1
DYEAR=1968
DGENRE=Vocal
TTITLE0=Walk on by
TTITLE1=Don't make me over
TTITLE2=Make the music play
TTITLE3=One hand, One heart/With these hands
TTITLE4=You can have him
TTITLE5=Baubles, Bangles and Beads
TTITLE6=Trains and Boats and Planes
TTITLE7=Gettin' ready for the heartbreak
TTITLE8=A house is not a home
TTITLE9=Unchained melody
TTITLE10=Here where there is love
TTITLE11=Close to you
EXTD=
EXTT0=
EXTT1=
EXTT2=
EXTT3=
EXTT4=
EXTT5=
EXTT6=
EXTT7=
EXTT8=
EXTT9=
EXTT10=
EXTT11=
PLAYORDER=
